<svg width="430" height="300" viewBox="0 0 430 300" fill="none" xmlns="http://www.w3.org/2000/svg" role="img" aria-label="floating pixel island">
  <defs>
    <linearGradient id="grass" x1="76" y1="84" x2="331" y2="228" gradientUnits="userSpaceOnUse">
      <stop stop-color="#84CC16"/>
      <stop offset="1" stop-color="#166534"/>
    </linearGradient>
    <linearGradient id="soil" x1="108" y1="185" x2="294" y2="285" gradientUnits="userSpaceOnUse">
      <stop stop-color="#854D0E"/>
      <stop offset="1" stop-color="#3F1D0A"/>
    </linearGradient>
    <filter id="shadow" x="-20%" y="-20%" width="140%" height="140%"><feDropShadow dx="0" dy="12" stdDeviation="10" flood-color="#000" flood-opacity="0.35"/></filter>
  </defs>
  <g filter="url(#shadow)">
    <path d="M74 179 C119 137 172 109 239 116 C289 122 333 152 365 189 C309 222 229 237 151 222 C112 214 87 198 74 179Z" fill="url(#grass)"/>
    <path d="M74 179 C141 211 280 216 365 189 C338 230 287 256 216 270 C157 256 104 224 74 179Z" fill="url(#soil)"/>
    <path d="M120 219 L105 262 M172 229 L160 288 M251 226 L241 279 M315 207 L307 258" stroke="#14532D" stroke-width="5" stroke-linecap="round" opacity="0.65"/>
    <ellipse cx="214" cy="178" rx="142" ry="36" fill="#A3E635" opacity="0.35"/>
  </g>
  <g transform="translate(108 48)">
    <path d="M71 141 C47 118 38 88 54 60 C61 29 91 4 128 9 C165 14 183 45 178 74 C204 87 212 121 191 145 C160 132 118 128 71 141Z" fill="#3B7A22"/>
    <path d="M88 127 C67 98 79 70 106 57 C109 35 128 22 151 25 C167 39 171 60 162 80 C184 91 183 119 163 134 C136 121 109 119 88 127Z" fill="#65A30D"/>
    <path d="M123 120 C126 87 127 62 126 32" stroke="#7C2D12" stroke-width="15" stroke-linecap="round"/>
    <path d="M126 87 C107 78 92 64 79 47" stroke="#7C2D12" stroke-width="8" stroke-linecap="round"/>
    <path d="M129 78 C149 67 161 54 172 37" stroke="#7C2D12" stroke-width="8" stroke-linecap="round"/>
    <rect x="156" y="142" width="64" height="38" rx="5" fill="#0F172A"/>
    <rect x="162" y="148" width="52" height="26" rx="3" fill="#38BDF8" opacity="0.9"/>
    <path d="M143 188 H228" stroke="#CBD5E1" stroke-width="6" stroke-linecap="round"/>
    <circle cx="64" cy="174" r="4" fill="#F472B6"/>
    <circle cx="257" cy="163" r="4" fill="#FBBF24"/>
    <circle cx="282" cy="190" r="4" fill="#F472B6"/>
  </g>
  <text x="333" y="232" font-family="monospace" font-size="18" fill="#E5E7EB">z</text>
  <text x="351" y="220" font-family="monospace" font-size="14" fill="#CBD5E1">z</text>
</svg>
